<?xml version="1.0" standalone="no"?><!DOCTYPE svg PUBLIC "-//W3C//DTD SVG 1.1//EN" "http://www.w3.org/Graphics/SVG/1.1/DTD/svg11.dtd"><svg t="1751280711544" class="icon" viewBox="0 0 1024 1024" version="1.1" xmlns="http://www.w3.org/2000/svg" p-id="5078" width="40" height="40" xmlns:xlink="http://www.w3.org/1999/xlink"><path d="M617.595665 3.341376c0.426305 1.278914 9.549224 3.069394 20.292102 3.879372 10.657617 0.852609 19.482123 2.387306 19.482123 3.495699 0 1.108392 2.898872 2.046262 6.479831 2.046262 7.119288 0.04263 14.323837 3.580959 11.979161 5.925635-0.809979 0.852609-9.549224 2.088893-19.439493 2.813611-9.847638 0.767348-17.904796 2.302045-17.904796 3.410437 0 1.108392-7.502962 2.003632-16.625881 2.003632-12.618618 0-16.966926 0.852609-17.990057 3.538329-0.980501 2.515198-4.859873 3.538329-13.087553 3.538328-7.28981 0-13.087553 1.364175-15.304338 3.580959-1.918371 1.918371-7.673484 3.538329-12.78914 3.538329s-9.293442 1.023131-9.293441 2.259415c0 1.236284-3.751481 2.941502-8.270311 3.794111-4.56146 0.852609-8.27031 2.515198-8.27031 3.66622 0 1.151023-2.557828 2.088893-5.755113 2.088893a15.005924 15.005924 0 0 0-9.293442 3.538329 15.56012 15.56012 0 0 1-9.591855 3.538329c-3.836742 0-6.096157 1.321544-6.096156 3.538328 0 2.387306-2.344676 3.580959-7.076658 3.58096-4.731982 0-7.076657 1.151023-7.076657 3.538328 0 2.174154-2.259415 3.538329-5.925635 3.538329-3.239915 0-5.925635 0.93787-5.925635 2.131523 0 1.108392-2.856241 2.813611-6.39457 3.66622a28.818195 28.818195 0 0 0-11.680747 7.332441c-2.898872 3.197285-7.502962 5.755113-10.146051 5.755113-2.72835 0-4.859873 1.577327-4.859874 3.538328a3.538329 3.538329 0 0 1-3.538328 3.538329 3.538329 3.538329 0 0 0-3.538329 3.580959 3.538329 3.538329 0 0 1-3.538329 3.538329c-1.961001 0-3.538329 1.065762-3.538328 2.344675s-1.534697 2.387306-3.367807 2.387307c-1.83311 0-6.565092 3.154655-10.444465 7.076657-3.922003 3.879372-8.22768 7.076657-9.634485 7.076657s-2.557828 1.619958-2.557828 3.538329a3.538329 3.538329 0 0 1-3.538329 3.580959 3.538329 3.538329 0 0 0-3.538328 3.538329c0 1.918371-1.151023 3.538329-2.557828 3.538329-3.239915 0-9.250811 5.968265-9.250811 9.293441 0 1.364175-1.619958 2.515198-3.538329 2.515198a3.538329 3.538329 0 0 0-3.580959 3.538328 3.538329 3.538329 0 0 1-3.538329 3.538329 3.538329 3.538329 0 0 0-3.538329 3.538329 3.538329 3.538329 0 0 1-3.538328 3.580959c-2.216784 0-3.538329 2.216784-3.538329 5.883004 0 3.66622-1.364175 5.925635-3.538329 5.925635-1.961001 0-3.538329 1.108392-3.538329 2.472567s-2.557828 4.817243-5.584591 7.673484a30.267631 30.267631 0 0 0-7.247179 10.529725c-0.93787 2.898872-2.685719 5.286178-3.879372 5.286178-1.236284 0-2.216784 2.131523-2.216785 4.731982 0 2.643089-1.577327 4.731982-3.538328 4.731982-2.131523 0-3.538329 2.216784-3.538329 5.669852 0 3.112024-1.619958 6.266679-3.538329 6.991396-1.961001 0.767348-3.538329 4.049894-3.538328 7.375071 0 3.282546-0.980501 5.968265-2.131524 5.968265-1.151023 0-2.77098 2.643089-3.580959 5.883005-0.852609 3.282546-2.557828 5.925635-3.836742 5.925634s-2.302045 3.197285-2.302045 7.076658c0 4.731982-1.151023 7.119288-3.538329 7.119288-2.557828 0-3.538329 2.557828-3.538328 9.250811 0 5.073025-1.065762 9.591855-2.429937 10.06079-1.278914 0.426305-3.069394 5.030395-3.879372 10.231312-0.852609 5.200917-2.557828 10.103421-3.836742 10.95603-1.278914 0.852609-2.813611 6.948766-3.453068 13.556488-0.639457 6.650353-1.961001 12.107052-2.941502 12.107052-0.93787 0-2.472567 7.375071-3.367807 16.370099-0.852609 8.995028-2.813611 16.796404-4.263047 17.265339-3.580959 1.193653-3.836742 121.923134-0.255783 124.267809 1.364175 0.852609 3.154655 8.526093 4.007264 16.924296 0.852609 8.440832 2.600458 15.730642 3.922003 16.156946 1.278914 0.426305 2.344676 5.414069 2.344676 11.083922 0 5.968265 1.449436 11.723378 3.538328 13.76964 1.918371 1.961001 3.538329 7.247179 3.538329 11.766009 0 5.115656 1.321544 8.696615 3.538329 9.506594 1.961001 0.767348 3.538329 4.049894 3.538329 7.37507 0 3.282546 0.980501 5.968265 2.174153 5.968266 1.193653 0 2.898872 3.197285 3.751481 7.076657 0.852609 3.922003 2.429937 7.119288 3.538329 7.119288 1.108392 0 2.685719 3.154655 3.538329 7.076657 0.852609 3.879372 2.557828 7.076657 3.751481 7.076658 1.193653 0 2.131523 2.685719 2.131523 5.925635 0 3.66622 1.364175 5.883004 3.580959 5.883004 2.174154 0 3.538329 2.259415 3.538329 5.925635 0 3.66622 1.321544 5.883004 3.538329 5.883004 1.961001 0 3.538329 1.619958 3.538328 3.580959 0 1.918371 1.065762 3.538329 2.387307 3.538329 1.278914 0 2.344676 1.577327 2.344675 3.538329 0 1.961001 1.577327 3.538329 3.538329 3.538328 1.961001 0 3.538329 1.577327 3.538329 3.538329 0 1.961001 1.492066 3.538329 3.282545 3.538329 1.83311 0 3.964633 2.685719 4.774613 5.925635 0.852609 3.239915 2.557828 5.925635 3.836742 5.925635s2.302045 1.577327 2.302045 3.538328c0 1.918371 1.577327 3.538329 3.538329 3.538329 1.961001 0 3.538329 1.577327 3.538328 3.538329 0 1.961001 1.619958 3.538329 3.538329 3.538328 1.961001 0 3.538329 1.577327 3.538329 3.538329 0 2.216784 2.259415 3.538329 5.925634 3.538329 3.66622 0 5.925635 1.364175 5.925635 3.580959 0 1.918371 1.577327 3.538329 3.538329 3.538329 1.918371 0 3.538329 1.065762 3.538329 2.344675s1.577327 2.344676 3.538328 2.344676c1.961001 0 3.538329 1.619958 3.538329 3.580959 0 2.174154 2.216784 3.538329 5.925635 3.538329 3.66622 0 5.883004 1.321544 5.883004 3.538328 0 2.344676 2.387306 3.538329 7.119288 3.538329 4.689351 0 7.076657 1.193653 7.076658 3.538329 0 2.131523 2.216784 3.538329 5.669852 3.538329 3.112024 0 6.266679 1.619958 6.991396 3.580959 0.809979 2.046262 4.348308 3.538329 8.526093 3.538328 3.922003 0 7.161918 0.89524 7.161919 2.046263 0 1.108392 4.263047 2.72835 9.463963 3.580959 5.200917 0.852609 9.421333 2.472567 9.421333 3.66622 0 1.151023 6.948766 2.856241 15.346968 3.751481 8.483463 0.93787 15.389598 2.600458 15.389598 3.751481 0 1.151023 4.774612 2.088893 10.657617 2.088893 7.844006 0 10.614986 0.93787 10.614986 3.538329 0 2.131523-2.216784 3.538329-5.669852 3.538328-3.112024 0-6.266679 1.619958-6.991396 3.58096-0.809979 2.003632-4.348308 3.538329-8.355572 3.538328-3.836742 0-7.28981 1.023131-7.716114 2.302045-0.426305 1.278914-7.460332 3.069394-15.56012 3.922003-8.099789 0.852609-14.792772 2.387306-14.792772 3.410438 0 1.065762-6.39457 2.643089-14.153315 3.538328-7.801375 0.852609-14.195945 2.557828-14.195945 3.66622 0 1.108392-22.338364 2.046262-49.621863 2.046263-27.283498 0-49.621863-0.93787-49.621863-2.046263 0-1.151023-7.460332-2.813611-16.540621-3.70885-9.080289-0.852609-16.540621-2.472567-16.540621-3.538329s-5.414069-2.429937-12.064422-3.069393c-6.650353-0.639457-12.78914-2.216784-13.599118-3.495699-0.852609-1.278914-5.49933-3.112024-10.359204-4.007263-4.902504-0.852609-8.867137-2.643089-8.867137-3.836742 0-1.278914-2.685719-2.302045-5.968265-2.302046-3.325176 0-6.607722-1.577327-7.375071-3.538328-0.724718-1.961001-3.879372-3.538329-6.991396-3.538329-3.112024 0-5.669852-0.93787-5.669852-2.131523 0-1.151023-2.856241-2.813611-6.39457-3.66622a28.775565 28.775565 0 0 1-11.680748-7.375071c-2.941502-3.154655-7.545593-5.712482-10.231312-5.712483s-5.541961-1.619958-6.266678-3.580959c-0.767348-1.918371-3.922003-3.538329-7.034027-3.538328-3.410437 0-5.627222-1.364175-5.627222-3.538329a3.538329 3.538329 0 0 0-3.580959-3.538329c-1.918371 0-3.538329-1.023131-3.538329-2.302045s-2.643089-2.984133-5.883004-3.836742c-3.282546-0.809979-5.925635-2.941502-5.925635-4.731982 0-1.83311-1.193653-3.325176-2.685719-3.325176-1.449436 0-5.115656-2.643089-8.142419-5.883004-2.984133-3.239915-6.607722-5.925635-7.971897-5.925635s-2.472567-1.193653-2.472567-2.643089c0-1.492066-6.906136-9.378703-15.346968-17.478491-8.440832-8.18505-15.346968-16.029055-15.346968-17.478492 0-1.406805-1.492066-2.557828-3.282546-2.557828-1.83311 0-3.964633-2.643089-4.774612-5.925634-0.852609-3.239915-2.557828-5.883004-3.836742-5.883005s-2.302045-1.619958-2.302045-3.538328a3.538329 3.538329 0 0 0-3.538329-3.538329c-2.131523 0-3.538329-2.216784-3.538329-5.669852 0-3.112024-1.619958-6.266679-3.538329-7.034027a5.840374 5.840374 0 0 1-3.538328-4.945134c0-2.003632-0.93787-3.62359-2.088893-3.62359-1.108392 0-2.72835-4.263047-3.580959-9.463963-0.852609-5.200917-2.557828-9.463964-3.836742-9.463964s-2.344676-3.112024-2.344676-6.906135c0-3.836742-1.406805-8.355571-3.112024-10.06079-1.705219-1.705219-3.836742-7.375071-4.689351-12.575988-0.852609-5.158286-2.600458-9.762377-3.922003-10.231312-1.364175-0.426305-2.429937-4.945134-2.429937-10.018159 0-5.115656-0.980501-9.250811-2.174154-9.250812-1.193653 0-2.941502-7.204549-3.836741-15.986424-0.93787-8.739246-2.898872-16.668512-4.348308-17.606383-3.66622-2.344676-3.708851-117.148521-0.042631-119.493197 1.406805-0.93787 3.325176-8.099789 4.220417-15.901164 0.852609-7.801375 2.643089-14.494359 3.879372-14.920663 1.278914-0.426305 2.302045-5.073025 2.302045-10.231312 0-5.243547 1.577327-10.99866 3.538329-12.959662a17.052187 17.052187 0 0 0 3.538329-10.487095c0-3.836742 1.065762-6.906136 2.344675-6.906135s2.984133-4.263047 3.836742-9.463964c0.852609-5.200917 2.344676-9.463964 3.410438-9.463963 1.023131 0 2.557828-3.154655 3.410437-7.076658 0.852609-3.879372 2.429937-7.076657 3.538329-7.076657 1.108392 0 2.685719-3.197285 3.538328-7.076657 0.852609-3.922003 2.557828-7.119288 3.751481-7.119288 1.193653 0 2.131523-1.108392 2.131524-2.557828 0-1.364175 1.619958-4.092525 3.580959-6.053526a13.343336 13.343336 0 0 0 3.538329-8.099789c0-2.515198 1.619958-4.56146 3.538328-4.56146 1.961001 0 3.538329-2.088893 3.538329-4.689351s1.108392-4.731982 2.472567-4.731982c1.321544 0 3.112024-1.875741 3.922003-4.135155a32.441785 32.441785 0 0 1 7.034027-9.378703c2.984133-2.856241 5.49933-7.375071 5.49933-10.018159 0-2.72835 1.534697-4.817243 3.538329-4.817243a3.538329 3.538329 0 0 0 3.538328-3.580959c0-1.918371 1.619958-3.538329 3.538329-3.538329 1.961001 0 3.538329-1.193653 3.538329-2.685719 0-1.449436 2.685719-5.115656 5.925635-8.142419 3.239915-2.984133 5.925635-6.607722 5.925634-7.971898 0-3.154655 18.117948-21.357864 21.229973-21.357863 1.321544 0 6.522461-4.263047 11.552856-9.463964 5.030395-5.200917 10.359203-9.421333 11.808639-9.421333 1.449436 0 2.643089-1.619958 2.643089-3.580959 0-1.918371 1.193653-3.538329 2.643089-3.538329s6.778244-4.263047 11.808639-9.463963c5.030395-5.158286 10.572356-9.421333 12.234944-9.421333 1.705219 0 5.669852-3.154655 8.867137-6.991397 3.197285-3.836742 7.119288-7.034027 8.739246-7.076657 1.662588-0.085261 2.984133-1.108392 2.984132-2.302045 0-1.236284 2.387306-2.984133 5.286178-3.879373a30.267631 30.267631 0 0 0 10.529725-7.247179c2.856241-3.069394 7.417701-5.584591 10.146051-5.584591 2.685719 0 5.4567-1.492066 6.181418-3.325176 0.682087-1.83311 3.836742-4.007264 6.991396-4.774613 3.154655-0.809979 5.755113-2.515198 5.755113-3.751481 0-1.278914 2.557828-2.344676 5.669852-2.344675 3.069394 0 6.266679-1.577327 6.991397-3.538329 0.767348-1.961001 4.049894-3.538329 7.33244-3.538329 3.751481 0 5.968265-1.321544 5.968265-3.538328 0-1.961001 1.619958-3.538329 3.580959-3.538329 1.918371 0 3.538329-1.065762 3.538329-2.387306 0-1.278914 3.112024-2.344676 6.906136-2.344676A17.052187 17.052187 0 0 0 351.027359 37.53101a14.025423 14.025423 0 0 1 8.611354-3.580959 14.025423 14.025423 0 0 0 8.611355-3.538329 17.3506 17.3506 0 0 1 10.614986-3.538329 17.3506 17.3506 0 0 0 10.657616-3.538328 17.052187 17.052187 0 0 1 10.444465-3.538329c3.836742 0 6.906136-0.93787 6.906135-2.131523 0-1.108392 5.840374-2.77098 13.002292-3.66622 7.161918-0.89524 13.002292-2.472567 13.002293-3.453068 0-1.023131 9.805007-2.557828 21.869429-3.410438 12.021791-0.852609 22.167842-2.600458 22.594147-3.879372 1.108392-3.282546 139.145842-3.239915 140.254234 0z m84.664106 46.978774c0 1.151023 9.208181 2.472567 20.462624 2.984132 13.641749 0.511566 20.803668 1.79048 21.485755 3.751481 0.596827 1.83311 5.414069 2.984133 12.661248 2.984133 8.22768 0 12.107052 1.023131 13.044923 3.495698 0.852609 2.216784 4.433568 3.580959 9.549225 3.58096 4.518829 0 9.805007 1.577327 11.723378 3.538328a13.343336 13.343336 0 0 0 8.099788 3.538329c2.557828 0 4.56146 1.065762 4.56146 2.344676s2.685719 2.387306 5.925635 2.387306c3.538329 0 5.883004 1.321544 5.883004 3.325176 0 1.875741 3.197285 4.092525 7.119288 4.945134 3.879372 0.852609 7.076657 2.557828 7.076658 3.708851 0 1.193653 1.577327 2.174154 3.538328 2.174154 1.961001 0 3.538329 1.065762 3.538329 2.344675s2.557828 2.984133 5.755113 3.751481c3.154655 0.767348 6.309309 2.941502 6.991397 4.774612a5.627222 5.627222 0 0 0 4.902503 3.325177c2.003632 0 3.62359 0.980501 3.62359 2.174154 0 1.236284 2.387306 2.984133 5.328808 3.922002 2.898872 0.89524 9.293442 5.755113 14.153315 10.785508 4.902504 4.987765 9.463964 9.12292 10.231312 9.12292 2.302045 0 8.099789 6.607722 8.099788 9.250811 0 1.406805 1.492066 2.557828 3.367807 2.557828 1.83311 0 6.565092 3.154655 10.444464 7.076658 3.879372 3.879372 8.099789 7.076657 9.378703 7.076657s2.984133 2.685719 3.751481 5.925635c0.852609 3.239915 2.557828 5.883004 3.836742 5.883004s2.302045 1.619958 2.302045 3.58096c0 1.918371 1.577327 3.538329 3.538329 3.538328 1.961001 0 3.538329 1.577327 3.538329 3.538329 0 1.961001 1.619958 3.538329 3.538328 3.538329 1.961001 0 3.538329 1.577327 3.538329 3.538328 0 1.961001 1.108392 3.538329 2.387306 3.538329 1.278914 0 2.344676 1.619958 2.344676 3.538329 0 1.961001 1.492066 3.580959 3.325176 3.580959 1.79048 0 3.922003 2.643089 4.731982 5.883004 0.852609 3.239915 2.557828 5.925635 3.836742 5.925635s2.302045 3.069394 2.302045 6.820875c0 5.328808-1.278914 7.161918-5.925635 8.312941-47.447709 11.936531-185.442528 108.878211-185.442528 114.803845 0 1.023131-2.685719 2.557828-5.968265 3.325177-3.239915 0.852609-5.883004 2.557828-5.883005 3.836742s-2.131523 2.302045-4.689351 2.302045c-2.643089 0-4.774612-1.065762-4.774612-2.344676s-1.577327-2.387306-3.538329-2.387306c-1.961001 0-3.538329-1.108392-3.538329-2.472567s-2.643089-4.945134-5.925634-7.929267c-3.239915-3.026763-5.883004-6.692983-5.883005-8.185049 0-1.449436-1.619958-2.685719-3.538329-2.68572-1.961001 0-3.538329-0.980501-3.538328-2.174153 0-1.236284-2.302045-2.984133-5.115656-3.836742a30.054479 30.054479 0 0 1-10.316573-7.24718c-2.856241-3.112024-6.39457-5.627222-7.886636-5.627221s-2.685719-1.619958-2.68572-3.538329c0-2.216784-2.216784-3.538329-5.925634-3.538329-3.66622 0-5.883004-1.364175-5.883005-3.580959 0-1.961001-2.131523-3.538329-4.731982-3.538328s-4.689351-1.023131-4.689351-2.302046-2.685719-2.984133-5.968265-3.836742c-3.239915-0.767348-5.883004-2.302045-5.883005-3.410437 0-1.023131-3.197285-2.557828-7.076657-3.410437-3.922003-0.852609-7.119288-2.429937-7.119288-3.453068s-4.263047-2.557828-9.421333-3.410437c-5.200917-0.809979-9.463964-2.557828-9.463963-3.836742s-4.177786-2.302045-9.250812-2.302045c-5.328808 0-9.677116-1.278914-10.231311-2.984133-0.767348-2.216784-13.940162-3.112024-52.605996-3.66622-44.76199-0.639457-51.923908-0.255783-53.714387 2.984132-1.406805 2.515198-5.584591 3.66622-13.556489 3.666221-6.309309 0-11.85127 1.108392-12.320204 2.515197-0.426305 1.364175-5.328808 3.112024-10.828139 3.836742s-9.975529 2.174154-9.975529 3.197285-3.197285 2.557828-7.119288 3.410437c-3.879372 0.852609-7.076657 2.557828-7.076657 3.751481 0 1.193653-2.643089 2.174154-5.883005 2.174154-3.708851 0-5.968265 1.321544-5.968265 3.538329 0 2.387306-2.344676 3.538329-7.034027 3.538329-4.731982 0-7.119288 1.193653-7.119288 3.538328 0 2.216784-2.216784 3.580959-5.883004 3.580959-3.708851 0-5.925635 1.321544-5.925635 3.538329 0 2.131523-2.216784 3.538329-5.627221 3.538329-3.112024 0-6.266679 1.577327-7.034027 3.538329a5.840374 5.840374 0 0 1-4.987765 3.538328c-1.961001 0-3.62359 0.93787-3.62359 2.131524 0 1.151023-2.643089 2.77098-5.883004 3.580959-3.239915 0.809979-5.925635 2.515198-5.925635 3.794111s-1.577327 2.302045-3.538328 2.302045a3.538329 3.538329 0 0 0-3.538329 3.538329c0 1.961001-1.193653 3.580959-2.643089 3.580959s-6.820875 4.305677-12.021792 9.634486c-5.115656 5.328808-9.975529 8.995028-10.785508 8.22768-2.302045-2.302045-0.511566-42.630466 1.961002-43.483076 1.236284-0.426305 2.898872-4.945134 3.708851-10.06079 0.809979-5.073025 2.302045-9.250811 3.282545-9.250811s2.472567-3.708851 3.325177-8.270311c0.852609-4.518829 2.557828-8.27031 3.836742-8.27031 1.236284 0 2.259415-2.643089 2.259414-5.883004 0-3.66622 1.321544-5.925635 3.538329-5.925635 2.344676 0 3.538329-2.344676 3.538329-7.076658 0-3.879372 1.023131-7.076657 2.302045-7.076657s2.984133-2.685719 3.836742-5.925635c0.809979-3.239915 2.941502-5.883004 4.731982-5.883004 1.83311 0 3.282546-1.619958 3.282546-3.580959 0-1.918371 0.980501-3.538329 2.131523-3.538329 1.151023 0 2.77098-2.643089 3.580959-5.883004 0.852609-3.282546 2.557828-5.925635 3.836742-5.925635s2.302045-1.577327 2.302045-3.538329c0-1.961001 1.577327-3.538329 3.538329-3.538329 1.918371 0 3.538329-1.492066 3.538329-3.282546 0-1.83311 1.577327-3.922003 3.538328-4.689351a5.840374 5.840374 0 0 0 3.538329-4.945134c0-2.003632 4.263047-7.758745 9.463964-12.78914 5.200917-5.073025 9.463964-10.401834 9.463963-11.851269 0-1.449436 1.577327-2.600458 3.538329-2.600459a3.538329 3.538329 0 0 0 3.538329-3.580959c0-1.918371 1.151023-3.538329 2.557828-3.538329 1.364175 0 5.712482-3.197285 9.634485-7.076657 3.879372-3.922003 8.568724-7.076657 10.444464-7.076658 1.83311 0 3.367807-1.065762 3.367807-2.387306 0-1.278914 1.577327-2.344676 3.538329-2.344675a3.538329 3.538329 0 0 0 3.538328-3.538329c0-1.961001 1.577327-3.538329 3.538329-3.538329a3.538329 3.538329 0 0 0 3.538329-3.580959c0-1.961001 2.131523-3.538329 4.859873-3.538329 2.643089 0 7.161918-2.515198 10.01816-5.54196a30.267631 30.267631 0 0 1 10.529725-7.24718c2.941502-0.93787 5.328808-2.685719 5.328808-3.879372 0-1.236284 2.131523-2.216784 4.689351-2.216784 2.643089 0 4.731982-1.577327 4.731982-3.538329 0-2.216784 2.259415-3.538329 5.925635-3.538329 3.66622 0 5.925635-1.364175 5.925635-3.580959 0-2.344676 2.344676-3.538329 7.076657-3.538328 4.689351 0 7.076657-1.151023 7.076657-3.538329 0-2.216784 2.259415-3.538329 5.925635-3.538329 3.239915 0 5.883004-0.980501 5.883005-2.174154 0-1.193653 3.197285-2.898872 7.119288-3.751481 3.879372-0.852609 7.076657-2.557828 7.076657-3.70885 0-1.193653 3.112024-2.174154 6.906135-2.174154 3.836742 0 8.355571-1.406805 10.060791-3.154655 1.705219-1.705219 7.375071-3.836742 12.575987-4.689351 5.158286-0.852609 9.805007-2.557828 10.231312-3.922003 0.426305-1.321544 6.479831-2.429937 13.385966-2.429936 7.886636 0 12.959662-1.065762 13.599119-2.898872 0.596827-1.918371 7.673484-3.239915 20.249472-3.836742 10.657617-0.426305 19.311601-1.79048 19.311601-2.984133 0-1.151023 6.906136-2.088893 15.346968-2.088893 8.483463 0 15.346968 0.93787 15.346968 2.131524z m-121.368937 244.784137c2.472567 2.472567 8.526093 3.580959 19.908427 3.580959 8.995028 0 16.370099 0.93787 16.370099 2.131524 0 1.236284 3.197285 2.898872 7.119288 3.751481 3.879372 0.852609 7.076657 2.557828 7.076658 3.70885 0 1.193653 4.263047 2.813611 9.463963 3.66622 5.200917 0.852609 9.421333 2.344676 9.421333 3.410438 0 0.980501 3.197285 2.557828 7.119288 3.410437 3.879372 0.852609 7.076657 2.557828 7.076657 3.708851 0 1.193653 1.577327 2.174154 3.538329 2.174153 1.961001 0 3.538329 1.619958 3.538329 3.538329 0 1.961001 1.151023 3.580959 2.557828 3.580959s5.712482 3.154655 9.634485 7.076658c3.879372 3.879372 8.611354 7.076657 10.444464 7.076657 1.875741 0 3.367807 1.151023 3.367807 2.557828 0 3.112024 5.968265 9.250811 8.952398 9.250811 1.278914 0 2.856241 3.708851 3.580959 8.270311a28.263999 28.263999 0 0 0 7.417702 13.854901c4.56146 4.263047 6.053526 7.929267 6.053526 15.219077 0 5.371439 1.534697 11.126552 3.538328 13.130183a15.56012 15.56012 0 0 1 3.538329 9.634486c0 4.902504-1.151023 6.053526-5.925635 6.053526-5.4567 0-5.883004 0.852609-5.925634 11.254443 0 14.579619-2.088893 21.826799-6.138788 21.826799-1.79048 0-3.282546 1.619958-3.282546 3.538329 0 2.216784-2.216784 3.580959-5.925634 3.580959-3.239915 0-5.883004 1.023131-5.883005 2.344675 0 1.278914-1.619958 2.344676-3.538328 2.344676-1.961001 0-3.538329 1.492066-3.538329 3.325176 0 1.79048-2.685719 3.922003-5.925635 4.731982-3.239915 0.852609-5.925635 2.557828-5.925635 3.836742s-1.577327 2.302045-3.538328 2.302045a3.538329 3.538329 0 0 0-3.538329 3.538329c0 2.387306-2.344676 3.538329-7.076658 3.538329-6.309309 0-7.076657 0.809979-7.076657 7.119288 0 4.689351 1.151023 7.076657 3.538329 7.076657 2.216784 0 3.538329 2.259415 3.538328 6.053526 0 3.367807 1.705219 7.758745 3.708851 9.805007 3.836742 3.836742 2.813611 15.261707-1.534697 16.839035-1.193653 0.426305-2.174154 2.259415-2.174154 4.135155 0 1.83311-1.577327 3.325176-3.538328 3.325176-1.961001 0-3.538329 1.151023-3.538329 2.557828 0 1.364175-1.619958 4.092525-3.580959 6.053526a15.346968 15.346968 0 0 0-3.538329 9.463964c0 5.968265-11.424965 19.737906-16.327468 19.737906-1.406805 0-2.557828 1.577327-2.557828 3.538328a3.538329 3.538329 0 0 1-3.538329 3.538329c-2.856241 0-3.538329 3.66622-3.538329 18.757405 0 10.913399-1.023131 19.013188-2.515197 19.482123-1.321544 0.426305-3.069394 6.948766-3.836742 14.409098-0.767348 7.417701-2.174154 13.513858-3.154655 13.513858-0.93787 0-2.259415 5.4567-2.898871 12.064422-0.639457 6.650353-2.259415 12.78914-3.62359 13.641749-1.406805 0.852609-3.239915 4.433568-4.135155 8.014528-1.193653 4.774612-3.112024 6.479831-7.24718 6.479831-3.154655 0-5.669852 1.065762-5.669852 2.344675s-1.065762 2.344676-2.387306 2.344676c-1.278914 0-2.344676-2.643089-2.344675-5.883004 0-3.239915 1.065762-5.925635 2.344675-5.925635s2.387306-5.840374 2.387306-13.002293c0-7.119288-1.065762-12.959662-2.387306-12.959661-1.278914 0-2.344676-1.619958-2.344675-3.580959a3.538329 3.538329 0 0 0-3.538329-3.538329c-2.216784 0-3.538329-2.216784-3.538329-5.968265 0-3.282546-1.619958-6.607722-3.580959-7.332441-1.918371-0.767348-3.538329-2.856241-3.538329-4.689351 0-1.79048-1.577327-3.282546-3.538328-3.282546-1.961001 0-3.538329-1.023131-3.538329-2.344675 0-1.278914-1.577327-2.344676-3.538329-2.344676-2.387306 0-3.538329-2.387306-3.538328-7.119288 0-3.879372-1.065762-7.076657-2.344676-7.076657s-2.984133-2.643089-3.794112-5.925635c-1.023131-4.092525-3.069394-5.883004-6.820874-5.883005-4.476199 0-5.541961-1.577327-6.692983-9.975529-0.724718-5.541961-2.472567-10.401834-3.836742-10.870769-1.406805-0.426305-2.557828-4.987765-2.557828-10.06079 0-6.650353-0.980501-9.250811-3.495699-9.250811a3.538329 3.538329 0 0 1-3.538328-3.580959 3.538329 3.538329 0 0 0-3.538329-3.538329c-2.344676 0-3.580959-2.344676-3.580959-6.863505 0-3.836742-1.278914-7.545593-2.941502-8.27031-2.344676-1.108392-2.344676-1.705219 0-2.770981 1.619958-0.767348 2.984133-2.643089 2.984132-4.220416 0-4.518829 8.952398-10.95603 15.346968-10.95603 3.66622 0 5.883004-1.321544 5.883004-3.538328 0-2.813611 3.410437-3.538329 16.540621-3.538329h16.540621v-13.002292c0-9.975529 0.852609-13.002292 3.538329-13.002292a3.538329 3.538329 0 0 0 3.580959-3.538329c0-2.557828 2.600458-3.538329 9.421333-3.538329s9.463964-0.980501 9.463964-3.538328c0-1.961001 1.492066-3.538329 3.367807-3.538329 1.83311 0 3.66622-1.023131 4.135155-2.259415 1.236284-3.538329 37.216397-4.220416 39.390551-0.724718 0.980501 1.577327 7.034027 3.197285 13.471227 3.538329l11.680748 0.596826 0.767348-10.018159c0.511566-7.247179 1.705219-10.06079 4.433569-10.06079 2.984133 0 3.410437-1.79048 2.174153-9.421333-1.449436-9.208181-1.321544-9.463964 5.371439-9.463964 3.922003 0 7.417701 1.492066 8.22768 3.538329 2.72835 7.161918 6.224048 3.239915 6.224048-7.076657 0-7.886636-0.93787-10.657617-3.538328-10.657617a3.538329 3.538329 0 0 1-3.538329-3.538329c0-2.131523-2.216784-3.538329-5.712483-3.538328-3.154655 0-6.096157-0.980501-6.522461-2.174154-0.426305-1.236284-3.708851-2.941502-7.247179-3.836742-6.053526-1.492066-6.522461-1.065762-6.522462 5.755113 0 4.945134-1.151023 7.33244-3.538328 7.33244-2.387306 0-3.538329-2.344676-3.538329-7.076657 0-4.689351-1.193653-7.076657-3.580959-7.076658a3.538329 3.538329 0 0 1-3.538329-3.538329c0-1.961001-0.980501-3.580959-2.174154-3.580959-1.236284 0-2.984133-2.344676-3.836742-5.200917-2.387306-7.33244-13.471227-17.904796-20.846298-19.737906-4.518829-1.108392-6.224048-3.069394-6.224048-7.204548 0-5.030395-1.023131-5.627222-9.421333-5.627222-8.952398 0-9.463964-0.426305-9.463963-7.119288 0-6.991396-0.170522-7.119288-9.463964-5.627221-7.929267 1.278914-9.421333 0.852609-9.421333-2.515198 0-4.433568 12.277574-17.819535 16.327469-17.819535 1.406805 0 2.557828-1.619958 2.557828-3.580959a3.538329 3.538329 0 0 0-3.538329-3.538329c-1.961001 0-3.538329-1.108392-3.538329-2.472567 0-1.321544-1.918371-4.476199-4.263046-6.991396-5.755113-6.181418-14.66488-3.836742-14.664881 3.836742 0 4.689351-1.193653 5.627222-7.076657 5.627221-4.689351 0-7.076657-1.151023-7.076657-3.538328 0-1.961001-1.151023-3.538329-2.557828-3.538329-1.364175 0-4.263047-1.705219-6.39457-3.836742-3.239915-3.282546-7.460332-3.66622-26.345629-2.557828-12.661248 0.767348-22.89256 2.472567-23.361495 3.836742-0.426305 1.406805-2.344676 2.557828-4.177786 2.557828-2.387306 0-3.325176 3.026763-3.325176 10.657617 0 9.037659-0.724718 10.614986-4.731982 10.614986-8.611354 0-14.195945 8.312941-14.195945 21.102081 0 10.657617-4.007264 19.141079-9.037659 19.013187-4.774612-0.085261-12.234944-3.154655-12.234944-5.030395 0-5.073025-8.526093-11.254443-13.641749-9.932898-2.898872 0.767348-5.243547 2.174154-5.243547 3.154654s-4.263047 2.472567-9.463964 3.325177c-5.200917 0.852609-9.463964 2.557828-9.463963 3.836742s-4.348308 2.344676-9.634486 2.344675c-7.673484 0-9.932899 0.93787-10.913399 4.689352-0.682087 2.643089-2.174154 4.731982-3.325177 4.731981-1.151023 0-2.131523 1.065762-2.131523 2.387306 0 4.007264 22.935191 2.898872 24.512518-1.193653 0.767348-1.961001 2.557828-3.538329 3.964634-3.538328 1.449436 0 4.305677-1.705219 6.39457-3.794112 2.813611-2.813611 6.181418-3.410437 13.428596-2.259415 5.286178 0.852609 9.975529 2.557828 10.401834 3.836742 0.426305 1.193653 3.367807 2.216784 6.522462 2.216785 3.495698 0 5.712482 1.364175 5.712482 3.538328 0 1.961001 1.577327 3.538329 3.538329 3.538329 2.344676 0 3.538329 2.387306 3.538328 7.119288 0 4.689351 1.193653 7.076657 3.538329 7.076657 2.685719 0 3.538329 2.898872 3.538329 11.8939 0 8.355571-1.023131 12.277574-3.538329 13.215445-1.961001 0.767348-3.538329 3.922003-3.538329 7.034027 0 3.453068 1.364175 5.669852 3.538329 5.669852 2.387306 0 3.538329 2.344676 3.538329 7.076657 0 4.689351-1.151023 7.076657-3.538329 7.076658-1.961001 0-3.538329 2.131523-3.538329 4.731982s-4.263047 8.867137-9.463963 13.897532c-5.200917 5.073025-9.463964 10.359203-9.463964 11.808639 0 1.705219-5.840374 2.643089-16.284838 2.643089-12.618618 0-16.625882-0.852609-17.691643-3.708851-1.023131-2.600458-2.984133-3.197285-6.735614-2.046262-2.984133 0.93787-5.712482 2.557828-6.138787 3.70885-0.426305 1.151023-2.302045 2.046262-4.135155 2.046263-2.472567 0-3.325176 3.410437-3.325177 13.215444 0 8.909767-1.236284 14.323837-3.836742 16.924295-2.856241 2.898872-3.538329 6.948766-2.685719 16.839035 0.596827 7.161918 2.302045 13.471227 3.794111 13.940162 1.79048 0.639457 2.72835 9.080289 2.72835 25.57828 0 19.780536 0.682087 24.981453 3.538329 26.089845 2.643089 1.023131 3.538329 5.200917 3.538329 16.45536 0 14.536989-0.213152 15.091185-5.925635 15.091185-3.239915 0-5.883004-1.023131-5.883004-2.344675 0-1.278914-1.619958-2.344676-3.538329-2.344676a3.538329 3.538329 0 0 1-3.580959-3.580959 3.538329 3.538329 0 0 0-3.538329-3.538329c-2.174154 0-3.538329-2.216784-3.538329-5.883004 0-3.708851-1.321544-5.925635-3.538328-5.925635-1.961001 0-3.538329-2.131523-3.538329-4.689351 0-2.813611-1.577327-4.774612-3.836742-4.774613-2.941502 0-3.410437 1.449436-2.131523 6.522462 0.852609 3.580959 2.557828 6.820875 3.794111 7.247179 1.193653 0.468935 2.131523 3.282546 2.131523 6.266679 0 2.984133 1.619958 6.096157 3.58096 6.820874 1.961001 0.767348 3.538329 2.984133 3.538328 4.987765s1.065762 3.62359 2.387306 3.623589c1.278914 0 2.344676 1.705219 2.344676 3.794112 0 2.472567-1.278914 3.282546-3.751481 2.344675a21.656277 21.656277 0 0 0-5.883004-1.406805c-1.193653 0-2.174154-2.557828-2.174154-5.669852 0-3.112024-1.619958-6.266679-3.538329-7.034027-1.961001-0.724718-3.538329-4.049894-3.538329-7.33244 0-3.708851-1.364175-5.968265-3.580959-5.968265a3.538329 3.538329 0 0 1-3.538328-3.538329c0-1.961001-0.89524-3.538329-2.046263-3.538329s-2.72835-4.263047-3.580959-9.463963c-0.852609-5.200917-2.557828-9.463964-3.836742-9.463964s-2.344676-3.197285-2.344676-7.076657c0-4.689351-1.193653-7.076657-3.538328-7.076658-2.685719 0-3.538329-2.941502-3.538329-11.979161 0-7.502962-1.321544-13.343336-3.538329-15.56012-2.856241-2.813611-3.538329-10.742878-3.538328-40.072638 0-30.267631 0.596827-36.747462 3.538328-37.898485 2.557828-0.980501 3.538329-4.945134 3.538329-14.068054 0-9.805007 0.852609-12.78914 3.538329-12.789139 2.216784 0 3.538329-2.216784 3.538328-6.053527 0-3.325176 1.619958-7.673484 3.538329-9.634485a15.005924 15.005924 0 0 0 3.538329-9.250811c0-3.154655 0.980501-5.755113 2.216784-5.755113 1.193653 0 2.856241-3.197285 3.708851-7.076658 0.852609-3.922003 2.557828-7.076657 3.751481-7.076657 1.193653 0 2.131523-1.619958 2.131523-3.580959 0-1.918371 1.619958-3.538329 3.580959-3.538329a3.538329 3.538329 0 0 0 3.538329-3.538329c0-1.961001 1.577327-3.538329 3.538329-3.538328 2.216784 0 3.538329-2.216784 3.538328-5.925635 0-3.66622 1.364175-5.883004 3.538329-5.883004a3.538329 3.538329 0 0 0 3.538329-3.538329c0-1.961001 1.619958-3.538329 3.580959-3.538329 1.918371 0 3.538329-1.151023 3.538329-2.557828 0-3.197285 13.002292-16.370099 16.199577-16.370099 1.278914 0 5.541961-3.197285 9.378702-7.076657 3.922003-3.922003 8.824507-7.076657 10.870769-7.076658a3.66622 3.66622 0 0 0 3.708851-3.580959c0-2.174154 2.216784-3.538329 5.925635-3.538329 3.66622 0 5.883004-1.321544 5.883004-3.538328 0-2.216784 2.259415-3.538329 5.925635-3.538329 3.239915 0 5.883004-0.980501 5.883004-2.216784 0-1.236284 4.817243-2.941502 10.657617-3.836742 5.840374-0.852609 10.657617-2.515198 10.657616-3.62359 0-1.151023 4.220416-2.77098 9.378703-3.580959 5.243547-0.852609 9.506594-2.472567 9.506594-3.580959 0-1.151023 5.200917-2.046262 11.510226-2.046263 6.39457 0 14.62225-1.619958 18.3311-3.538328 9.591855-5.030395 54.098062-5.030395 59.085827 0z m38.665832 33.081242c0 1.961001 1.065762 3.580959 2.344676 3.580959s2.387306 1.577327 2.387306 3.538329c0 1.918371 1.577327 3.538329 3.538329 3.538329a3.538329 3.538329 0 0 0 3.538329-3.538329 3.538329 3.538329 0 0 0-3.538329-3.538329 3.538329 3.538329 0 0 1-3.538329-3.580959c0-1.918371-1.065762-3.538329-2.387306-3.538329-1.278914 0-2.344676 1.619958-2.344676 3.538329zM54.788249 625.916706c0 1.961001 1.065762 3.580959 2.387306 3.580959 2.472567 0 11.808639 8.526093 11.808639 10.785508 0 1.364175 5.49933 7.460332 23.020452 25.663541 5.541961 5.712482 10.06079 11.552856 10.06079 12.959661 0 1.406805 1.577327 2.557828 3.538329 2.557828 1.961001 0 3.538329 1.577327 3.538329 3.538329 0 1.961001 1.619958 3.538329 3.538328 3.538329 1.961001 0 3.538329 1.619958 3.538329 3.580959 0 1.918371 1.151023 3.538329 2.557828 3.538329 3.325176 0 16.370099 13.044923 16.370099 16.327468 0 1.406805 1.577327 2.557828 3.538329 2.557828 1.961001 0 3.538329 1.577327 3.538328 3.538329 0 1.961001 1.619958 3.538329 3.538329 3.538329 1.961001 0 3.538329 1.023131 3.538329 2.216784 0 1.236284 2.302045 2.941502 5.115656 3.836742 2.813611 0.852609 7.460332 4.135155 10.316573 7.247179 2.856241 3.069394 6.39457 5.627222 7.886636 5.627222s2.685719 1.492066 2.685719 3.282546c0 1.79048 2.643089 3.964633 5.925635 4.774612 3.239915 0.809979 5.883004 2.557828 5.883004 3.794111 0 1.278914 1.492066 2.302045 3.282546 2.302045 1.83311 0 3.922003 1.619958 4.689352 3.58096 0.724718 1.918371 4.049894 3.538329 7.33244 3.538328 3.751481 0 5.968265 1.278914 5.968265 3.538329 0 2.216784 2.216784 3.538329 5.925635 3.538329 3.239915 0 5.883004 0.980501 5.883004 2.174153 0 1.193653 3.197285 2.856241 7.119288 3.708851 3.879372 0.852609 7.076657 2.429937 7.076657 3.495698s2.643089 2.557828 5.883005 3.410438c3.282546 0.809979 5.925635 2.557828 5.925635 3.794111 0 1.278914 3.112024 2.302045 6.906135 2.302045 3.794112 0 7.247179 1.151023 7.716115 2.557828 0.426305 1.364175 5.328808 3.112024 10.828138 3.836742s9.975529 2.131523 9.975529 3.069394c0 0.980501 4.263047 2.429937 9.463964 3.282546 5.200917 0.852609 9.463964 2.429937 9.463963 3.580959 0 1.151023 8.696615 2.472567 19.311601 2.984132 12.533357 0.554196 19.610014 1.875741 20.292102 3.794112 1.236284 3.708851 113.141258 4.263047 114.377541 0.554196 0.426305-1.278914 10.657617-3.069394 22.636778-3.879372 12.021791-0.852609 21.869429-2.387306 21.869429-3.410438s5.840374-2.557828 13.002292-3.453067c7.119288-0.89524 13.002292-2.557828 13.002293-3.708851 0-1.151023 3.112024-2.131523 6.906135-2.131523a17.052187 17.052187 0 0 0 10.444464-3.495699 15.56012 15.56012 0 0 1 9.634486-3.580959c3.367807 0 6.096157-1.023131 6.096157-2.302045s4.177786-2.984133 9.293441-3.836742c5.115656-0.852609 9.847638-2.984133 10.572356-4.774612 0.682087-1.79048 3.922003-3.239915 7.247179-3.239916 3.239915 0 5.968265-0.93787 5.968265-2.131523 0-1.151023 2.643089-2.77098 5.883005-3.580959 3.239915-0.809979 5.925635-2.557828 5.925635-3.794112 0-1.278914 2.131523-2.302045 4.689351-2.302045 2.643089 0 4.774612-1.577327 4.774612-3.580959 0-2.174154 2.216784-3.538329 5.883004-3.538329 3.66622 0 5.925635-1.321544 5.925635-3.538328 0-1.961001 1.577327-3.538329 3.538329-3.538329 1.918371 0 3.538329-0.93787 3.538329-2.131523 0-1.151023 2.643089-2.72835 5.883004-3.580959 3.282546-0.809979 5.968265-2.515198 5.968265-3.794112s1.577327-2.302045 3.580959-2.302045a5.755113 5.755113 0 0 0 4.945135-3.453068c0.724718-1.918371 3.62359-4.177786 6.394569-5.073025 2.813611-0.852609 10.06079-6.778244 16.071686-13.087554 6.010896-6.309309 12.149683-11.510226 13.599119-11.510225 1.449436 0 2.643089-1.577327 2.643089-3.495699 0-1.961001 1.577327-3.538329 3.538329-3.538328a3.538329 3.538329 0 0 0 3.538328-3.538329c0-1.961001 1.577327-3.580959 3.538329-3.580959 1.961001 0 3.538329-1.193653 3.538329-2.643089 0-1.492066 6.906136-9.378703 15.346968-17.478491 8.483463-8.18505 15.346968-16.029055 15.346967-17.478492 0-4.135155 21.187342-3.239915 22.8073 0.980501 0.767348 1.961001 3.922003 3.538329 7.034027 3.538329 3.112024 0 5.627222 1.065762 5.627221 2.344676s2.685719 2.984133 5.925635 3.794111c3.239915 0.809979 5.883004 2.344676 5.883005 3.410437 0 7.844006 167.665624 108.622428 186.380398 108.622428 2.898872 0 5.030395 1.492066 5.030395 3.538329 0 1.961001 1.619958 3.538329 3.538329 3.538329 1.961001 0 3.538329 1.619958 3.538329 3.538329 0 1.961001-0.980501 3.538329-2.174154 3.538328-1.236284 0-2.941502 2.302045-3.836742 5.115656a30.18237 30.18237 0 0 1-7.247179 10.316573c-3.112024 2.856241-5.627222 6.39457-5.627222 7.886636s-1.577327 2.685719-3.538329 2.68572a3.538329 3.538329 0 0 0-3.538328 3.538328c0 1.961001-1.065762 3.538329-2.387306 3.538329-1.278914 0-2.344676 1.534697-2.344676 3.410437 0 1.83311-3.197285 6.522461-7.119288 10.401834-3.836742 3.922003-7.076657 8.27031-7.076657 9.634486 0 1.406805-1.577327 2.557828-3.538329 2.557828a3.538329 3.538329 0 0 0-3.538329 3.538328 3.538329 3.538329 0 0 1-3.538328 3.538329 3.538329 3.538329 0 0 0-3.538329 3.580959 3.538329 3.538329 0 0 1-3.538329 3.538329c-1.961001 0-3.580959 1.108392-3.580959 2.515197 0 3.282546-5.968265 9.293442-9.250811 9.293442a2.557828 2.557828 0 0 0-2.557828 2.557828c0 3.410437-15.261707 18.714775-18.672144 18.714775-1.406805 0-2.557828 1.577327-2.557828 3.538328 0 1.961001-1.151023 3.538329-2.557828 3.538329s-5.669852 3.069394-9.421333 6.863505c-11.382335 11.424965-106.192492 61.984698-106.192492 67.569289 0 2.557828-2.643089 3.538329-9.463964 3.538329s-9.421333 0.980501-9.421333 3.538329c0 2.387306-2.387306 3.538329-7.119287 3.538328-3.879372 0-7.076657 0.980501-7.076658 2.174154 0 1.236284-3.197285 2.898872-7.076657 3.751481-3.922003 0.852609-7.119288 2.472567-7.119288 3.538329 0 1.108392-5.840374 2.77098-13.002292 3.66622-7.119288 0.852609-12.959662 2.557828-12.959662 3.708851 0 1.151023-4.263047 2.088893-9.549225 2.088892-6.266679 0-9.975529 1.193653-10.870768 3.538329-1.023131 2.643089-5.243547 3.538329-16.625882 3.538329-10.444464 0-16.41273 1.108392-18.842666 3.538328-16.370099 16.370099-253.651274 7.33244-253.651275-19.780536 0-1.108392-4.518829-2.643089-10.018159-3.410437-5.49933-0.724718-10.359203-2.429937-10.828139-3.836742-0.426305-1.364175-3.410437-2.515198-6.607722-2.515198s-6.39457-1.577327-7.161918-3.538328c-0.852609-2.131523-4.390938-3.538329-9.12292-3.538329-4.689351 0-8.312941-1.406805-9.12292-3.538329-0.767348-1.961001-4.049894-3.538329-7.33244-3.538328-3.282546 0-5.968265-0.980501-5.968266-2.174154 0-1.193653-3.197285-2.898872-7.119287-3.751481-3.879372-0.852609-7.076657-2.557828-7.076658-3.708851 0-1.193653-1.619958-2.174154-3.538329-2.174154a3.538329 3.538329 0 0 1-3.538328-3.580959c0-2.131523-2.216784-3.538329-5.669852-3.538329-3.112024 0-6.266679-1.577327-7.034027-3.538328-0.724718-1.961001-4.049894-3.538329-7.33244-3.538329-3.751481 0-5.968265-1.321544-5.968266-3.538329a3.538329 3.538329 0 0 0-3.538328-3.538328c-1.961001 0-3.538329-0.93787-3.538329-2.131524 0-1.151023-2.685719-2.77098-5.925635-3.580959-3.239915-0.809979-5.925635-2.557828-5.925635-3.794111 0-1.278914-1.577327-2.302045-3.538328-2.302045a3.538329 3.538329 0 0 1-3.538329-3.58096 3.538329 3.538329 0 0 0-3.538329-3.538328 3.538329 3.538329 0 0 1-3.538329-3.538329c0-2.216784-2.216784-3.538329-5.925634-3.538329-3.66622 0-5.883004-1.321544-5.883005-3.538328 0-1.961001-1.108392-3.538329-2.472567-3.538329s-4.945134-2.685719-7.971897-5.925635c-2.984133-3.239915-6.692983-5.883004-8.142419-5.883004-1.492066 0-2.685719-1.619958-2.685719-3.58096a3.538329 3.538329 0 0 0-3.538329-3.538328 3.538329 3.538329 0 0 1-3.538329-3.538329 3.538329 3.538329 0 0 0-3.580959-3.538329c-1.918371 0-3.538329-1.151023-3.538329-2.557828 0-3.239915-5.968265-9.250811-9.250811-9.250811-1.406805 0-2.557828-1.619958-2.557828-3.538328a3.538329 3.538329 0 0 0-3.538329-3.538329 3.538329 3.538329 0 0 1-3.538328-3.580959 3.538329 3.538329 0 0 0-3.538329-3.538329c-1.961001 0-3.538329-1.193653-3.538329-2.685719 0-1.449436-2.557828-5.030395-5.669852-7.886637a30.097109 30.097109 0 0 1-7.247179-10.316573c-0.852609-2.813611-2.557828-5.115656-3.836742-5.115655-1.193653 0-2.131523-1.577327-2.131523-3.495699a3.538329 3.538329 0 0 0-3.580959-3.580959 3.538329 3.538329 0 0 1-3.538329-3.538329 3.538329 3.538329 0 0 0-3.538329-3.538328 3.538329 3.538329 0 0 1-3.538328-3.538329c0-1.961001-1.065762-3.538329-2.387307-3.538329-1.278914 0-2.344676-1.534697-2.344675-3.410437a11.297074 11.297074 0 0 0-3.239916-6.565092 24.64041 24.64041 0 0 1-4.902503-8.440832c-0.89524-2.856241-2.643089-5.200917-3.836742-5.200917-1.236284 0-2.216784-1.662588-2.216784-3.62359 0-2.003632-1.577327-4.263047-3.538329-4.987764-1.961001-0.767348-3.538329-3.836742-3.538329-6.778244 0-2.984133-1.619958-5.968265-3.538329-6.778245a5.797743 5.797743 0 0 1-3.538328-4.945134c0-2.003632-0.980501-3.62359-2.131524-3.623589-1.151023 0-2.77098-3.708851-3.623589-8.270311-0.852609-4.56146-2.557828-8.27031-3.836742-8.27031-1.236284 0-2.259415-2.046262-2.259415-4.56146a13.343336 13.343336 0 0 0-3.538329-8.099789 13.897532 13.897532 0 0 1-3.538328-8.526093c0-2.72835-1.577327-5.541961-3.538329-6.309309-2.302045-0.89524-3.538329-4.56146-3.538329-10.572356 0-6.607722-1.023131-9.208181-3.538328-9.20818-2.557828 0-3.538329-2.557828-3.538329-9.250811 0-5.115656-1.151023-9.634485-2.557828-10.060791-1.364175-0.468935-3.112024-5.371439-3.836742-10.870768s-2.259415-9.975529-3.410437-9.97553c-1.108392 0-2.046262-4.263047-2.046263-9.506594 0-6.309309-1.193653-10.01816-3.538328-10.913399-5.541961-2.131523-4.135155-5.541961 2.387306-5.541961 3.66622 0 5.883004 1.278914 5.883004 3.495699z" fill="#4F6CEB" p-id="5079"></path></svg>